<?xml version="1.0" encoding="UTF-8" standalone="no"?>
<svg
   xmlns:dc="http://purl.org/dc/elements/1.1/"
   xmlns:cc="http://creativecommons.org/ns#"
   xmlns:rdf="http://www.w3.org/1999/02/22-rdf-syntax-ns#"
   xmlns:svg="http://www.w3.org/2000/svg"
   xmlns="http://www.w3.org/2000/svg"
   id="svg284"
   viewBox="0 0 1129.5209 238.40004"
   height="238.40004"
   width="1129.5209"
   version="1.1">
  <metadata
     id="metadata290">
    <rdf:RDF>
      <cc:Work
         rdf:about="">
        <dc:format>image/svg+xml</dc:format>
        <dc:type
           rdf:resource="http://purl.org/dc/dcmitype/StillImage" />
        <dc:title></dc:title>
      </cc:Work>
    </rdf:RDF>
  </metadata>
  <defs
     id="defs288" />
  <g
     id="g282"
     transform="matrix(0.45,0,0,0.45,131.0913,-139.10166)">
    <g
       id="g280"
       style="font-family:none;mix-blend-mode:normal;fill:none;fill-rule:nonzero;stroke:none;stroke-linecap:butt;stroke-linejoin:miter;stroke-miterlimit:10;stroke-dasharray:none;stroke-dashoffset:0"
       text-anchor="none"
       font-size="none"
       font-weight="none"
       stroke-miterlimit="10"
       stroke-width="none">
      <path
         style="fill:#d0d0ce;stroke:none;stroke-width:1"
         id="path2"
         d="m -87.24107,475.71367 53.07886,-65.1048 67.99306,55.43361 -8.03751,8.43371 -6.46792,11.41841 -10.92068,9.2413 -8.55808,11.07964 -5.27685,9.87774 -1.67484,14.50092 -7.86787,4.03851 z" />
      <path
         style="fill:#d0d0ce;stroke:none;stroke-width:1"
         id="path4"
         d="m 12.4954,542.2381 -0.10861,-50.75751 8.10928,3.52881 12.2805,-7.8912 10.98558,-2.17531 13.99431,-0.39807 14.0688,2.59456 12.9322,-2.22986 11.61734,0.87549 0.13839,64.67102 -5.88854,-0.54487 -6.05293,12.28433 -16.80019,-2.69887 -11.30239,10.17646 -14.44399,2.81913 -8.08775,1.13946 -4.45026,11.10331 -4.14598,-0.94214 -6.44563,11.36466 -10.49679,-3.21574 -9.85576,8.4714 -10.11205,6.3197 10.12061,-2.3197 9.86004,-6.4714 7.4863,3.71834 -0.85178,1.50324 1.58552,-1.1388 2.28103,1.13296 3.77735,-5.48437 0.06138,-0.0441 5.22362,-2.72592 7.49592,3.18577 6.58417,-11.5967 14.44827,-0.81914 11.30667,-8.17647 16.80447,4.69886 6.05721,-10.28434 5.89091,1.65267 0.08916,41.66453 -0.25002,0.27677 -13.07113,4.75361 -13.90863,5.30004 -8.73538,15.05901 -13.87079,2.69466 13.87935,1.30533 8.73966,-13.05901 13.91291,-3.30004 13.07541,-2.75361 0.25012,-0.22718 0.30981,144.77996 -83.99981,0.17975 -0.30814,-143.99967 -99.49977,0.21291 0.12105,56.57037 -9.42168,5.7573 -13.98156,5.05661 -4.11449,9.48842 -11.756,4.84005 -10.06004,4.77659 10.0686,-0.7766 11.76028,-2.84006 4.11877,-7.48843 13.98584,-3.05661 9.42545,-3.99501 0.16192,75.66703 -83.99981,0.17975 -0.39893,-186.4316 2.06641,0.0467 6.56979,-5.98093 7.75799,-10.8377 11.15803,-0.32866 12.73893,-4.26576 10.90969,-11.09613 10.63902,-7.63206 -10.64758,3.63207 -10.91397,9.09614 -12.74321,2.26577 -11.16231,-1.67133 -7.76227,8.8377 -6.57407,3.98094 -2.06701,-0.32784 -0.19107,-89.29212 10.25549,0.82316 7.50953,-3.75224 12.54835,-4.53343 11.0791,-11.45017 12.63934,-2.37252 -12.6479,-1.62747 -11.08338,9.45018 -12.55263,2.53344 -7.51381,1.75224 -10.25809,-2.04154 -0.15145,-70.776 83.99981,-0.17975 0.30814,143.99967 z" />
      <path
         style="fill:#d0d0ce;stroke:none;stroke-width:1"
         id="path6"
         d="m 390.21698,669.12772 -12.10726,5.11919 -10.95825,-10.41239 -17.20014,2.19537 -10.66991,-9.5154 -10.44127,-10.52303 -6.96513,-10.48295 -4.35542,-6.98866 -8.43539,-6.54976 -9.41758,-11.18981 -5.96524,-10.91495 -8.44894,-13.24039 4.26418,-10.63254 -4.71231,-6.88421 0.61639,-10.82922 -5.39164,-7.87135 -5.00011,-12.40975 3.09954,-10.84913 -3.30423,-9.69973 1.25151,-9.18113 -1.20709,-14.02367 -4.21594,-11.59264 0.024,-12.86082 1.47352,-9.68946 11.28492,-4.89004 -0.14942,-9.12117 7.51111,-11.48736 10.30643,-9.07428 11.43415,-12.06384 8.03334,-3.03084 27.15272,91.97004 -0.4302,2.09858 -7.45895,11.40225 -7.8745,8.60451 -7.27895,7.80119 -3.44235,14.37998 -6.68341,6.99787 -2.9792,11.738 4.1118,-7.9017 7.24971,-5.07972 4.00865,-12.46183 7.84526,-5.88304 8.4408,-6.68636 8.02525,-9.4841 0.50552,-1.84347 44.19311,149.6882 z" />
      <path
         style="fill:#d0d0ce;stroke:none;stroke-width:1"
         id="path8"
         d="m 426.65586,770.36199 -95.49988,0.14876 -33.65261,-97.9477 -72.49991,0.11293 -15.99778,47.75437 -10.75295,7.08352 -7.98904,3.21753 -12.45987,-4.84545 -14.7015,5.20319 -7.98904,3.21753 -10.33246,7.8935 9.06186,-4.10067 7.35374,-1.32111 14.0662,-3.30677 11.82457,6.74187 7.35374,-1.32111 10.13043,-5.22526 -12.4152,37.06016 -95.49988,0.14876 57.42497,-197.11982 5.90544,-9.75652 13.5705,1.93031 9.24837,-10.37087 14.30189,-3.85459 10.85987,-6.70986 8.90618,-7.77945 -7.78741,3.93909 -10.30049,4.78968 -13.7425,1.93441 -8.68898,8.4507 -13.01111,-3.85049 -5.36388,7.8975 47.09755,-161.66942 111.99986,-0.17446 3.42464,11.62066 -8.03482,3.02691 -11.44005,12.05824 -10.31087,9.06924 -7.51672,11.48369 0.14496,9.12124 -11.28731,4.88452 -1.47826,9.68873 -0.0303,12.8608 4.21027,11.5947 1.20024,14.02426 -1.256,9.18052 3.29949,9.70134 -3.10484,10.84761 4.99404,12.4122 5.38779,7.87398 -0.62169,10.82891 4.70895,6.88652 -4.26938,10.63046 8.44246,13.24452 5.95991,10.91786 9.41211,11.19442 8.43219,6.55388 4.352,6.99079 6.96001,10.48636 10.43613,10.52813 1.51976,1.35665 -2.59888,0.33042 10.6102,8.84553 5.27898,11.77437 15.48871,3.72692 5.73169,13.96414 3.25555,10.82268 7.55535,6.81602 -3.58729,-7.32052 -1.27152,-11.07493 -3.74766,-14.21639 -13.50468,-3.97917 -3.29496,-12.02662 -0.73428,-0.77443 7.1655,-0.91102 10.95316,10.41774 12.10976,-5.11327 5.74072,-3.35074 z" />
      <path
         style="fill:#d0d0ce;stroke:none;stroke-width:1"
         id="path10"
         d="m 653.21207,406.79311 1.50558,11.29687 -12.55077,8.63178 -4.8473,12.90107 -6.34247,8.02272 -17.87899,1.70236 -10.52527,10.69965 -11.11951,-5.38168 -13.62654,9.61641 -11.84717,-2.3911 -14.10367,-8.83459 -10.71536,-2.92045 -12.31168,-6.99805 -15.86429,-5.6197 -9.46648,-6.38752 0.98017,-14.70526 -6.43983,-8.16008 -3.09012,-7.62406 -1.36753,-1.60928 165.97642,-1.09707 z" />
      <path
         style="fill:#d0d0ce;stroke:none;stroke-width:1"
         id="path12"
         d="m 671.42843,398.65772 -0.12769,83.9999 -135.95095,-0.20666 0.17361,-0.22053 0.0182,-11.99999 -8.17286,12.20839 -0.0679,-10e-5 -1.5e-4,0.10172 -0.68951,1.02998 -10.81065,6.30686 -14.9257,5.27422 -5.66813,9.05541 -11.83963,5.59096 11.83355,-1.59097 5.66509,-7.05541 14.92266,-3.27422 10.80761,-4.30687 0.68928,-0.87556 -0.0756,49.7438 105.99988,0.16113 -0.12769,83.9999 -105.99988,-0.16113 -0.0912,59.99993 143.99983,0.2189 -0.12769,83.9999 -227.99974,-0.34659 0.0651,-42.8163 11.12963,-5.77275 10.3477,1.44059 10.60544,-6.61754 8.2648,-11.03585 5.66642,-7.39601 11.23288,-0.0275 -11.2268,-3.97246 -5.66338,5.39601 -8.26176,9.03585 -10.6024,4.61755 -10.34466,-3.44059 -11.1268,3.91118 0.47933,-315.32171 50.09818,0.0762 1.3544,1.62035 3.02803,7.64893 6.37328,8.21217 -1.09969,14.69681 9.41423,6.46427 15.81808,5.74849 12.25438,7.09791 10.69126,3.00747 14.03138,8.94895 11.82734,2.48734 13.70427,-9.50531 11.07539,5.4719 10.61191,-10.61373 17.89224,-1.55696 6.40749,-7.97089 4.95202,-12.86124 12.62052,-8.52946 -1.41369,-11.30874 6.43701,-8.80593 z" />
      <path
         style="fill:#d0d0ce;stroke:none;stroke-width:1"
         id="path14"
         d="m 637.96793,615.75322 c 8.06171,-16.46909 18.50914,-31.54773 31.34227,-45.2359 12.83314,-13.68818 27.42206,-24.4406 43.76677,-32.25729 16.34471,-7.81668 34.16799,-11.90734 53.46984,-12.27197 19.30185,-0.36463 39.37189,4.32051 60.21011,14.05542 l 0.453,0.21163 c 4.34543,2.03003 8.4813,4.13617 12.40762,6.31841 l -0.0617,16.48153 -12.14737,9.75732 -4.60969,7.84215 -11.63942,3.75824 0.62673,10.63523 -11.56631,4.94614 -1.60015,13.01005 -3.18099,5.09942 c -1.07857,-0.55308 -2.18835,-1.06376 -3.32933,-1.53203 -15.96651,-5.98735 -31.13012,-5.62103 -45.49085,1.09898 -14.36072,6.72001 -25.42094,18.3851 -33.18065,34.99528 l -13.22139,28.30127 -9.66663,7.51527 -12.15066,-2.67687 -16.60434,1.00389 -10.32841,-3.66319 -6.78976,-11.94422 -15.92977,-1.93901 -9.09205,-8.73448 -1.97945,-1.33771 z" />
      <path
         style="fill:#d0d0ce;stroke:none;stroke-width:1"
         id="path16"
         d="m 906.77852,684.54366 c 14.25399,-1.80782 25.22954,-7.72295 32.92665,-17.74537 7.69711,-10.02242 12.86295,-21.24189 15.49752,-33.65842 l 78.99431,25.62035 c -1.7753,6.46903 -4.4525,14.81607 -8.0315,25.04114 -3.579,10.22506 -9.3974,20.72441 -17.4552,31.49804 -8.0579,10.77363 -19.05637,20.85619 -32.99552,30.24768 -13.93915,9.39149 -32.02548,16.29226 -54.259,20.70232 l -0.49045,0.0973 c -24.84922,4.92889 -46.47139,5.13976 -64.8665,0.63261 -18.39511,-4.50715 -34.21911,-12.32786 -47.472,-23.46213 -13.25289,-11.13427 -24.0664,-24.96127 -32.44053,-41.48101 -8.37413,-16.51974 -14.9324,-34.16426 -19.67481,-52.93358 l -5.65322,-28.50096 2.3873,-0.0921 12.49729,1.66559 13.99174,-7.85804 12.53923,5.61543 10.49485,-3.15486 12.79511,-10.63 11.38086,-5.02794 3.3498,-11.77718 8.02814,40.47422 c 3.56696,17.98299 11.63438,32.09981 24.20227,42.35048 12.56788,10.25066 27.3191,14.37615 44.25365,12.37646 z" />
      <path
         style="fill:#d0d0ce;stroke:none;stroke-width:1"
         id="path18"
         d="m 878.91033,549.41449 c 15.48717,2.71473 29.25378,7.46852 41.29983,14.26136 12.04605,6.79284 22.35633,15.11806 30.93083,24.97566 8.5745,9.8576 15.75923,19.98995 21.55419,30.39703 l -63.26929,53.79123 c -3.12563,-5.49822 -7.01934,-11.0145 -11.68113,-16.54883 -4.66179,-5.53433 -9.93006,-10.2692 -15.8048,-14.20461 -5.87474,-3.93541 -12.20955,-6.76052 -19.00445,-8.47532 -5.59905,-1.41301 -11.20067,-1.67197 -16.80485,-0.77686 l -0.4472,-5.99356 -6.39709,-11.44111 6.40804,-10.82501 -6.79023,-8.20936 7.16897,-9.9099 -0.91538,-9.05045 4.03374,-15.04968 -9.68963,-13.33251 c 14.43824,-1.81311 27.57439,-1.68247 39.40844,0.39191 z" />
      <path
         style="fill:#d0d0ce;stroke:none;stroke-width:1"
         id="path20"
         d="m 1039.7143,406.24927 82.4531,16.04646 -16.5241,84.90705 23.2693,-22.48449 -0.9998,4.5361 -7.234,6.73792 4.0391,15.20572 -10.7957,8.29255 -0.2718,9.06343 -7.6248,7.41041 -8.0454,12.97037 -7.7871,9.47118 -7.1804,13.95518 -9.8604,4.96088 -4.0507,12.28035 -9.4734,5.25001 -13.9508,5.62168 -5.4419,8.3301 -13.9917,-4.47138 -14.2523,11.47243 -12.29218,-3.94325 z" />
      <path
         style="fill:#d0d0ce;stroke:none;stroke-width:1"
         id="path22"
         d="m 1177.7698,398.00887 103.9995,-0.31756 -137.9299,186.92204 138.5658,185.07776 -103.9995,0.31756 -58.0482,-77.38703 2.8812,-1.8684 3.5096,-7.75812 -0.043,-13.99993 -3.5034,9.75811 -12.1052,9.85379 -14.4056,1.62528 -5.5518,13.73356 -10.8035,1.46896 -4.1512,14.95052 4.1635,-10.95054 10.8095,0.53103 5.5579,-11.73357 14.4117,0.37471 7.046,-4.5691 0.2325,76.15394 -83.9996,0.25649 -0.4963,-162.52901 12.8237,1.48332 11.7555,-14.01973 4.5131,0.51696 -2.898,1.04714 -3.7408,9.27395 10.2259,-5.2795 12.6148,5.64266 14.3653,-1.42386 9.4943,-9.16954 -7.998,5.45996 -13.6171,-0.43093 -7.9416,-5.01758 3.2977,-8.17526 12.595,-8.22167 8.2747,-6.98833 1.591,-12.83292 8.7105,-6.77977 4.3363,-15.08316 5.8015,-10.8021 5.3759,-14.28489 6.0421,-8.749 -1.492,-8.94392 8.9816,-10.22961 -6.9126,-14.13307 5.7892,-8.01346 0.1007,-4.64389 z" />
      <path
         style="fill:#d0d0ce;stroke:none;stroke-width:1"
         id="path24"
         d="m 1220.4317,683.02876 c -11.0391,-9.08904 -19.7715,-19.39657 -26.1972,-30.9226 -6.4257,-11.52602 -9.8358,-26.12016 -10.2304,-43.78242 -0.3648,-16.32926 2.6476,-30.73347 9.0371,-43.21262 6.3895,-12.47916 14.9899,-23.00721 25.801,-31.58415 10.8111,-8.57694 23.3332,-15.19161 37.5661,-19.844 8.8594,-2.89589 17.9297,-5.0214 27.211,-6.37655 l 8.3992,2.85204 -2.7626,10.47943 0.3264,13.09229 7.0281,13.68003 -2.4494,14.35746 4.0314,9.19674 -0.414,10.74742 c -4.6601,0.91409 -8.9792,2.9491 -12.9572,6.10503 -5.4055,4.28847 -8.0153,10.59833 -7.8291,18.92959 0.1414,6.33175 2.8488,11.85599 8.1221,16.57272 1.0926,0.97722 2.3118,2.01959 3.6577,3.12711 l 0.042,2.09324 -10.4269,10.48295 -1.5905,11.97383 -6.6371,13.54739 -7.1094,11.16489 -8.5513,5.19172 -11.6701,3.84856 -7.5924,9.44164 c -5.2537,-3.64059 -10.1885,-7.36117 -14.8045,-11.16175 z" />
      <path
         style="fill:#d0d0ce;stroke:none;stroke-width:1"
         id="path26"
         d="m 1489.6915,681.83058 c -0.4845,12.00873 -3.7302,23.30926 -9.7369,33.90159 -6.0067,10.59233 -14.3666,19.88687 -25.0799,27.88362 -10.7133,7.99675 -23.7016,14.36116 -38.9649,19.09322 -15.2633,4.73206 -32.5605,7.24472 -51.8916,7.53797 -14.9983,0.22752 -29.1103,-1.55863 -42.3362,-5.35846 -13.2258,-3.79983 -25.227,-9.28509 -36.0037,-16.45578 -10.7767,-7.1707 -19.9942,-15.94856 -27.6526,-26.33359 -7.6584,-10.38503 -13.2552,-22.21817 -16.7904,-35.4994 l 79.4826,-34.7096 c -0.6615,0.34341 0.1238,2.6651 2.356,6.96507 2.2321,4.29997 5.3846,8.83601 9.4575,13.60811 4.0728,4.7721 9.0546,9.03036 14.9454,12.77477 5.8909,3.74441 12.1616,5.06611 18.8124,3.96511 5.6559,-0.75254 11.2006,-3.33694 16.6343,-7.7532 5.4336,-4.41626 7.913,-11.28799 7.4381,-20.61519 -0.4192,-5.66096 -2.7486,-10.87623 -6.9881,-15.6458 -4.2395,-4.76958 -10.2326,-9.76258 -17.9793,-14.97901 -17.1699,-11.07417 -33.0685,-20.7508 -47.6958,-29.02988 -8.5109,-4.81719 -16.4033,-9.78484 -23.6772,-14.90295 l 7.6598,-9.38698 11.6974,-3.76481 8.5883,-5.13029 7.1893,-11.11364 6.734,-13.49947 1.6763,-11.96212 10.5018,-10.40794 -0.027,-2.09349 c 5.1198,4.27494 12.0878,9.51717 20.904,15.72671 15.463,8.43309 30.3428,16.87503 44.6393,25.32582 14.2965,8.45079 27.0275,18.09212 38.1931,28.92401 11.1656,10.83188 20.1863,23.11314 27.062,36.84376 6.8757,13.73062 10.4577,30.09484 10.7459,49.09265 z" />
      <path
         style="fill:#d0d0ce;stroke:none;stroke-width:1"
         id="path28"
         d="m 1455.9407,504.69448 c 18.0468,3.2288 33.4238,8.60429 46.131,16.12647 12.7071,7.52218 23.032,16.0573 30.9746,25.60536 7.9426,9.54806 13.6436,19.79561 17.103,30.74265 1.1744,3.71627 2.1426,7.38587 2.9044,11.00882 l -7.9172,-10.89049 -14.7092,-8.31819 -2.0408,-16.41204 -10.52,-4.47717 6.5987,5.26701 0.08,16.80696 12.7486,8.71311 6.5203,12.0609 3.512,13.03566 2.1194,5.98238 -71.7465,14.45162 c -0.3387,-3.78547 -1.0961,-8.06915 -2.2723,-12.85105 -1.1762,-4.78189 -3.1494,-9.36775 -5.9196,-13.75758 -2.7702,-4.38982 -6.2993,-8.32284 -10.5875,-11.79905 -0.1504,-0.12193 -0.302,-0.2424 -0.4548,-0.36142 l 7.439,0.72041 12.6604,-5.83235 7.8593,-4.11513 8.9387,-6.22189 -7.9961,2.33453 -7.388,2.17145 -12.1892,3.88867 -8.1158,-2.77528 -10.4471,4.87435 c -1.9148,-0.66336 -3.9448,-1.18694 -6.0901,-1.57076 -0.1319,-0.0236 -0.2637,-0.0463 -0.3954,-0.0682 l -4.1665,-2.86082 1.9405,-8.00315 -2.13,-9.813 5.2444,-13.58793 -4.1793,-14.80098 2.2731,-12.89759 4.7834,-9.72467 -7.668,-4.45908 c 5.6809,0.3093 11.3817,0.91179 17.1024,1.80746 z" />
      <path
         style="fill:#d0d0ce;stroke:none;stroke-width:1"
         id="path30"
         d="m 1824.999,613.28828 -35.6659,76.05225 -23.9702,-11.24117 1.835,-2.34665 2.3528,-8.27011 7.5667,-8.16099 5.747,-13.47766 10.5466,-9.52656 5.4951,-11.11947 6.3994,-9.02762 11.3343,-6.80218 z" />
      <path
         style="fill:#d0d0ce;stroke:none;stroke-width:1"
         id="path32"
         d="m 1639.0732,482.22522 -0.01,42.51311 -7.5723,2.18614 -10.7407,10.03562 -11.5498,10.62323 -11.4728,5.62382 -5.1539,11.92179 5.153,-7.92179 11.4724,-3.62382 11.5494,-8.62323 10.7402,-8.03562 7.572,-0.90692 v 6.20767 l 15.6442,0.003 0.4999,0.76992 7.9857,6.41892 1.4725,11.17057 10.7044,7.19915 11.7682,11.18267 -1.4473,16.21783 11.1253,4.09057 -7.1253,-4.08968 3.4473,-16.21739 -9.7682,-11.18223 -8.7044,-7.1987 0.5275,-11.17013 -5.9857,-6.41848 -0.3532,-0.76989 76.2091,0.017 -0.019,84 -106,-0.0236 -0.012,56.41966 -2.2403,-7.56029 -16,-0.004 5.4229,11.55176 5.3413,7.94713 8.6184,5.65356 10.9119,8.93067 3.7844,12.69855 10.8303,5.32605 4.5385,14.09145 -0.5385,-14.09056 -8.8303,-5.3256 -1.7844,-12.6981 -8.9119,-8.93023 -6.6184,-5.65311 -3.3413,-7.94669 -0.1216,-0.41045 142.9382,0.0318 v 18.11463 l -9.5402,3.07535 -6.1516,11.91603 -5.1964,7.78234 -11.3448,9.26439 -10.0713,4.75281 10.0704,-0.75281 11.3444,-7.26439 5.1959,-5.78234 6.1512,-9.91603 9.5398,-1.52375 -0.012,54.33377 -228,-0.0507 0.083,-371.99999 218.7673,0.0487 -7.3761,10.96941 -1.9632,10.89016 -0.2568,12.40053 -3.9358,9.36447 -0.5561,0.0119 -9.7424,9.62477 -5.5057,11.21325 5.6466,-7.21574 8.6973,-6.75903 0.4055,11.50502 -3.3881,10.60087 1.3794,8.48691 -0.6657,2.9036 z" />
      <path
         style="fill:#d0d0ce;stroke:none;stroke-width:1"
         id="path34"
         d="m 1910.1757,398.72804 18.2167,33.4649 -1.6232,-0.81402 -6.9818,-8.22341 -10.187,-4.25643 -10.225,-6.34114 -11.4553,5.5711 -5.26,-12.24064 -8.2941,-3.40021 -10.3126,-0.55469 -11.3497,0.71476 -8.5368,-1.06244 -10.0475,-2.82114 -0.085,-0.0868 z" />
      <path
         style="fill:#d0d0ce;stroke:none;stroke-width:1"
         id="path36"
         d="m 2009.8647,580.69447 -0.3589,-182.49965 36.5046,-0.0718 0.4464,2.82274 13.2194,4.5463 5.4389,9.17931 4.2407,9.58666 -0.2407,-9.59452 -3.4389,-9.18324 -11.2194,-4.55023 -0.012,-2.82359 44.0608,-0.0866 0.2332,118.57925 -3.8886,2.37783 -9.7584,13.07206 -8.4476,4.68865 -7.3348,11.30394 -10.9372,11.45634 -15.2152,2.199 -6.4609,5.715 -7.7058,9.09884 -10.5002,8.66187 -5.2801,8.33072 5.288,-4.33072 10.5042,-6.66188 7.7096,-7.09885 4.8669,-2.79673 1.9569,8.89916 -14.3584,8.41643 -0.088,15.65223 -4.9998,14.28294 -10.7782,7.98935 -3.2034,12.95138 -2.3241,15.63965 5.8917,-13.8307 4.9872,-12.04691 12.562,-7.08487 6.7836,-13.37846 0.088,-15.65223 14.3584,-8.41643 -3.0525,-13.88101 0.7419,-0.5499 8.2518,-0.1079 10.9411,-9.45635 7.3388,-9.30394 8.4514,-2.68866 9.7624,-11.07207 3.8898,-1.755 0.4578,232.79724 -84.9998,0.16715 -97.9932,-178.49249 9.2911,-5.97832 -0.031,-15.99997 -11.3245,9.28921 -9.8467,6.00044 -11.8738,-0.99176 -5.4947,9.17229 -8.0357,10.76705 -8.3689,2.71167 -8.9977,6.46885 9.0056,-2.46886 8.3728,-0.71168 8.0396,-8.76705 5.4987,-7.17229 11.8777,2.99176 9.5327,-3.87135 0.3486,177.24916 -88.9999,0.17502 -0.7315,-371.99928 9.3584,-0.0184 0.086,0.0866 10.0548,2.79475 8.5396,1.04002 11.3478,-0.74456 10.3141,0.52761 8.3029,3.37843 5.2922,12.22679 11.4406,-5.60116 10.2416,6.31427 10.1982,4.22967 0.3697,0.43321 -0.2824,0.93805 -2.0434,16.19469 1.3359,11.13706 -6.3672,8.75798 -9.1906,5.28972 1.1023,16.51716 -0.076,9.40293 -12.0698,11.67015 -5.5447,6.935 4.0705,12.37103 -11.2472,9.84717 -1.6321,15.2832 -4.9557,10.49212 -1.2208,14.3717 -10.747,11.16998 -0.3982,12.54872 -5.7782,12.3151 -8.6016,8.84683 5.9625,14.98221 -4.0409,-11.47403 9.5624,-7.09274 6.7391,-10.56101 1.359,-10.79464 11.7078,-9.41589 2.1817,-12.61762 5.9164,-8.73803 2.5851,-13.48796 4.7103,7.13076 -3.0653,-8.25725 10.5709,-7.00774 -3.1097,-10.61694 6.5055,-5.18091 13.0307,-9.91606 1.0365,-7.64884 -0.1416,-14.76307 10.1515,-3.53563 7.328,-7.0039 -0.3751,-9.38298 3.0043,-14.4406 1.9196,-4.44508 z" />
      <path
         style="fill:#00bb31;stroke:none;stroke-width:1"
         id="path38"
         d="M 222.8,800 V 725.6 H 206 V 800 Z m -23.2,15.5 V 710.9 H 1542 v 104.6 z m 81.8,-34.2 c 0,-3.8 -0.66667,-7.08333 -2,-9.85 -1.33333,-2.76667 -3.1,-5.25 -5.3,-7.45 -2.2,-2.2 -4.71667,-4.16667 -7.55,-5.9 -2.83333,-1.73333 -5.78333,-3.46667 -8.85,-5.2 -2.2,-1.6 -3.81667,-2.88333 -4.85,-3.85 -1.03333,-0.96667 -1.55,-2.08333 -1.55,-3.35 0,-1.66667 0.55,-2.91667 1.65,-3.75 1.1,-0.83333 2.31667,-1.25 3.65,-1.25 1.26667,0 2.38333,0.26667 3.35,0.8 0.96667,0.53333 1.8,1.18333 2.5,1.95 0.7,0.76667 1.25,1.6 1.65,2.5 0.4,0.9 0.7,1.71667 0.9,2.45 l 14.7,-5.8 c -0.33333,-2 -1.03333,-4.01667 -2.1,-6.05 -1.06667,-2.03333 -2.55,-3.85 -4.45,-5.45 -1.9,-1.6 -4.23333,-2.91667 -7,-3.95 -2.76667,-1.03333 -5.98333,-1.55 -9.65,-1.55 -3.06667,0.0667 -6.03333,0.53333 -8.9,1.4 -2.86667,0.86667 -5.4,2.13333 -7.6,3.8 -2.2,1.66667 -3.96667,3.73333 -5.3,6.2 -1.33333,2.46667 -2,5.33333 -2,8.6 0,3.53333 0.61667,6.46667 1.85,8.8 1.23333,2.33333 2.93333,4.43333 5.1,6.3 2.16667,1.86667 4.7,3.65 7.6,5.35 2.9,1.7 6.05,3.68333 9.45,5.95 1.53333,1.06667 2.71667,2.08333 3.55,3.05 0.83333,0.96667 1.28333,2.01667 1.35,3.15 0.0667,1.86667 -0.45,3.23333 -1.55,4.1 -1.1,0.86667 -2.21667,1.36667 -3.35,1.5 -1.33333,0.2 -2.58333,-0.0833 -3.75,-0.85 -1.16667,-0.76667 -2.15,-1.63333 -2.95,-2.6 -0.8,-0.96667 -1.41667,-1.88333 -1.85,-2.75 -0.43333,-0.86667 -0.58333,-1.33333 -0.45,-1.4 l -16,6.7 c 0.66667,2.66667 1.75,5.05 3.25,7.15 1.5,2.1 3.31667,3.88333 5.45,5.35 2.13333,1.46667 4.51667,2.6 7.15,3.4 2.63333,0.8 5.45,1.2 8.45,1.2 3.86667,0 7.33333,-0.45 10.4,-1.35 3.06667,-0.9 5.68333,-2.13333 7.85,-3.7 2.16667,-1.56667 3.86667,-3.4 5.1,-5.5 1.23333,-2.1 1.91667,-4.35 2.05,-6.75 z m 57.8,-55.7 h -50.6 v 16.8 h 16.9 V 800 h 16.8 v -57.6 h 16.9 z m 105.2,0 -7.8,33.4 -7.8,-33.4 H 414.7 L 406.9,759 399,725.6 h -19.8 l 19.1,74.4 h 16.1 l 7.8,-31.4 6.8,31.4 h 15.1 l 21.1,-74.4 z m 78.2,16.8 V 725.6 H 477 V 800 h 45.6 v -16.8 h -28.8 v -12 H 515 v -16.8 h -21.2 v -12 z M 550.9,800 V 725.6 H 534.1 V 800 Z m 39.8,-39.1 c 1.2,0 2.46667,-0.43333 3.8,-1.3 1.33333,-0.86667 2.55,-2.06667 3.65,-3.6 1.1,-1.53333 2,-3.36667 2.7,-5.5 0.7,-2.13333 1.05,-4.5 1.05,-7.1 0,-2.46667 -0.43333,-4.76667 -1.3,-6.9 -0.86667,-2.13333 -2.16667,-4 -3.9,-5.6 -1.73333,-1.6 -3.96667,-2.86667 -6.7,-3.8 -2.73333,-0.93333 -5.93333,-1.4 -9.6,-1.4 h -17.3 v 74.4 h 24.3 c 3.26667,0 6.13333,-0.55 8.6,-1.65 2.46667,-1.1 4.51667,-2.6 6.15,-4.5 1.63333,-1.9 2.86667,-4.08333 3.7,-6.55 0.83333,-2.46667 1.25,-5.06667 1.25,-7.8 0,-1.86667 -0.3,-3.9 -0.9,-6.1 -0.6,-2.2 -1.55,-4.23333 -2.85,-6.1 -1.3,-1.86667 -2.98333,-3.41667 -5.05,-4.65 -2.06667,-1.23333 -4.6,-1.85 -7.6,-1.85 z m 75.1,20.4 c 0,-3.8 -0.66667,-7.08333 -2,-9.85 -1.33333,-2.76667 -3.1,-5.25 -5.3,-7.45 -2.2,-2.2 -4.71667,-4.16667 -7.55,-5.9 -2.83333,-1.73333 -5.78333,-3.46667 -8.85,-5.2 -2.2,-1.6 -3.81667,-2.88333 -4.85,-3.85 -1.03333,-0.96667 -1.55,-2.08333 -1.55,-3.35 0,-1.66667 0.55,-2.91667 1.65,-3.75 1.1,-0.83333 2.31667,-1.25 3.65,-1.25 1.26667,0 2.38333,0.26667 3.35,0.8 0.96667,0.53333 1.8,1.18333 2.5,1.95 0.7,0.76667 1.25,1.6 1.65,2.5 0.4,0.9 0.7,1.71667 0.9,2.45 l 14.7,-5.8 c -0.33333,-2 -1.03333,-4.01667 -2.1,-6.05 -1.06667,-2.03333 -2.55,-3.85 -4.45,-5.45 -1.9,-1.6 -4.23333,-2.91667 -7,-3.95 -2.76667,-1.03333 -5.98333,-1.55 -9.65,-1.55 -3.06667,0.0667 -6.03333,0.53333 -8.9,1.4 -2.86667,0.86667 -5.4,2.13333 -7.6,3.8 -2.2,1.66667 -3.96667,3.73333 -5.3,6.2 -1.33333,2.46667 -2,5.33333 -2,8.6 0,3.53333 0.61667,6.46667 1.85,8.8 1.23333,2.33333 2.93333,4.43333 5.1,6.3 2.16667,1.86667 4.7,3.65 7.6,5.35 2.9,1.7 6.05,3.68333 9.45,5.95 1.53333,1.06667 2.71667,2.08333 3.55,3.05 0.83333,0.96667 1.28333,2.01667 1.35,3.15 0.0667,1.86667 -0.45,3.23333 -1.55,4.1 -1.1,0.86667 -2.21667,1.36667 -3.35,1.5 -1.33333,0.2 -2.58333,-0.0833 -3.75,-0.85 -1.16667,-0.76667 -2.15,-1.63333 -2.95,-2.6 -0.8,-0.96667 -1.41667,-1.88333 -1.85,-2.75 -0.43333,-0.86667 -0.58333,-1.33333 -0.45,-1.4 l -16,6.7 c 0.66667,2.66667 1.75,5.05 3.25,7.15 1.5,2.1 3.31667,3.88333 5.45,5.35 2.13333,1.46667 4.51667,2.6 7.15,3.4 2.63333,0.8 5.45,1.2 8.45,1.2 3.86667,0 7.33333,-0.45 10.4,-1.35 3.06667,-0.9 5.68333,-2.13333 7.85,-3.7 2.16667,-1.56667 3.86667,-3.4 5.1,-5.5 1.23333,-2.1 1.91667,-4.35 2.05,-6.75 z m 51.3,-55.7 -11,33.6 -11.2,-33.6 H 675.1 L 698,800 h 15 l 23.6,-73.46611 V 725.6 Z m 81.1,27.4 c -0.0667,-3.4 -0.7,-6.7 -1.9,-9.9 -1.2,-3.2 -3,-6.06667 -5.4,-8.6 -2.73333,-2.86667 -5.85,-5.06667 -9.35,-6.6 -3.5,-1.53333 -7.21667,-2.3 -11.15,-2.3 h -0.1 c -3.93333,0 -7.63333,0.76667 -11.1,2.3 -3.46667,1.53333 -6.6,3.73333 -9.4,6.6 -2.33333,2.53333 -4.13333,5.45 -5.4,8.75 -1.26667,3.3 -1.9,6.55 -1.9,9.75 v 17.4 c 0.0667,4 0.65,7.76667 1.75,11.3 1.1,3.53333 2.95,6.7 5.55,9.5 2.8,2.86667 5.95,5.06667 9.45,6.6 3.5,1.53333 7.18333,2.3 11.05,2.3 h 0.1 c 3.93333,0 7.65,-0.76667 11.15,-2.3 3.5,-1.53333 6.61667,-3.76667 9.35,-6.7 2.66667,-2.8 4.55,-6.05 5.65,-9.75 1.1,-3.7 1.65,-7.35 1.65,-10.95 z m 28,30.2 V 725.6 H 809.4 V 800 h 36.7 v -16.8 z m 81.1,-57.6 h -20.8 l -12.1,17.3 V 725.6 H 857.6 V 800 h 16.8 v -16.1 l 12,16.1 h 20.8 l -27.6,-37.1 z m 80.4,54.8 6.7,19.6 h 19.1 L 991.7,725.6 H 969.3 L 947.5,800 h 19.1 l 6.6,-19.6 z m 72.2,-54.8 v 36.5 L 1040,725.6 h -17.1 V 800 h 17.8 v -36.6 l 20,36.6 h 17 v -74.4 z m 94.1,0 -7.8,33.4 -7.8,-33.4 h -14.1 l -7.8,33.4 -7.9,-33.4 h -19.8 l 19.1,74.4 h 16.1 l 7.8,-31.4 6.8,31.4 h 15.1 l 21.1,-74.4 z m 78.2,16.8 v -16.8 h -45.6 V 800 h 45.6 v -16.8 h -28.8 v -12 h 21.2 v -16.8 h -21.2 v -12 z m 60.2,38.9 c 0,-3.8 -0.6667,-7.08333 -2,-9.85 -1.3333,-2.76667 -3.1,-5.25 -5.3,-7.45 -2.2,-2.2 -4.7167,-4.16667 -7.55,-5.9 -2.8333,-1.73333 -5.7833,-3.46667 -8.85,-5.2 -2.2,-1.6 -3.8167,-2.88333 -4.85,-3.85 -1.0333,-0.96667 -1.55,-2.08333 -1.55,-3.35 0,-1.66667 0.55,-2.91667 1.65,-3.75 1.1,-0.83333 2.3167,-1.25 3.65,-1.25 1.2667,0 2.3833,0.26667 3.35,0.8 0.9667,0.53333 1.8,1.18333 2.5,1.95 0.7,0.76667 1.25,1.6 1.65,2.5 0.4,0.9 0.7,1.71667 0.9,2.45 l 14.7,-5.8 c -0.3333,-2 -1.0333,-4.01667 -2.1,-6.05 -1.0667,-2.03333 -2.55,-3.85 -4.45,-5.45 -1.9,-1.6 -4.2333,-2.91667 -7,-3.95 -2.7667,-1.03333 -5.9833,-1.55 -9.65,-1.55 -3.0667,0.0667 -6.0333,0.53333 -8.9,1.4 -2.8667,0.86667 -5.4,2.13333 -7.6,3.8 -2.2,1.66667 -3.9667,3.73333 -5.3,6.2 -1.3333,2.46667 -2,5.33333 -2,8.6 0,3.53333 0.6167,6.46667 1.85,8.8 1.2333,2.33333 2.9333,4.43333 5.1,6.3 2.1667,1.86667 4.7,3.65 7.6,5.35 2.9,1.7 6.05,3.68333 9.45,5.95 1.5333,1.06667 2.7167,2.08333 3.55,3.05 0.8333,0.96667 1.2833,2.01667 1.35,3.15 0.067,1.86667 -0.45,3.23333 -1.55,4.1 -1.1,0.86667 -2.2167,1.36667 -3.35,1.5 -1.3333,0.2 -2.5833,-0.0833 -3.75,-0.85 -1.1667,-0.76667 -2.15,-1.63333 -2.95,-2.6 -0.8,-0.96667 -1.4167,-1.88333 -1.85,-2.75 -0.4333,-0.86667 -0.5833,-1.33333 -0.45,-1.4 l -16,6.7 c 0.6667,2.66667 1.75,5.05 3.25,7.15 1.5,2.1 3.3167,3.88333 5.45,5.35 2.1333,1.46667 4.5167,2.6 7.15,3.4 2.6333,0.8 5.45,1.2 8.45,1.2 3.8667,0 7.3333,-0.45 10.4,-1.35 3.0667,-0.9 5.6833,-2.13333 7.85,-3.7 2.1667,-1.56667 3.8667,-3.4 5.1,-5.5 1.2333,-2.1 1.9167,-4.35 2.05,-6.75 z m 57.2,-38.9 V 725.6 H 1304 V 800 h 45.6 v -16.8 h -28.8 v -12 h 21.2 v -16.8 h -21.2 v -12 z m 48,-16.8 v 36.5 l -19.9,-36.5 h -17.1 V 800 h 17.8 v -36.6 l 20,36.6 h 17 v -74.4 z m 79.8,37.2 c 0,-5.26667 -0.7333,-10.18333 -2.2,-14.75 -1.4667,-4.56667 -3.6667,-8.5 -6.6,-11.8 -2.9333,-3.3 -6.6,-5.9 -11,-7.8 -4.4,-1.9 -9.5,-2.85 -15.3,-2.85 h -15 V 800 h 17.2 c 6.0667,0 11.2,-1 15.4,-3 4.2,-2 7.6,-4.7 10.2,-8.1 2.6,-3.4 4.4667,-7.35 5.6,-11.85 1.1333,-4.5 1.7,-9.25 1.7,-14.25 z m 36.4,-37.1 c -3.2667,0 -6.3333,0.41667 -9.2,1.25 -2.8667,0.83333 -5.3833,2.05 -7.55,3.65 -2.1667,1.6 -3.8667,3.6 -5.1,6 -1.2333,2.4 -1.85,5.2 -1.85,8.4 l 15.6,3.8 c 0,-1.73333 0.6667,-3.23333 2,-4.5 1.3333,-1.26667 3,-1.9 5,-1.9 1.7333,0 3.25,0.51667 4.55,1.55 1.3,1.03333 1.95,2.41667 1.95,4.15 0,1.2 -0.4833,2.4 -1.45,3.6 -0.9667,1.2 -2.8167,2.66667 -5.55,4.4 -1.3333,0.8 -2.55,1.71667 -3.65,2.75 -1.1,1.03333 -2.0667,2.26667 -2.9,3.7 -0.8333,1.43333 -1.4833,3.08333 -1.95,4.95 -0.4667,1.86667 -0.7,4.03333 -0.7,6.5 v 3 h 13.8 c 0,-0.73333 0.033,-1.43333 0.1,-2.1 0.1333,-1.26667 0.4,-2.26667 0.8,-3 1.1333,-1.8 2.3667,-3.3 3.7,-4.5 1.3333,-1.2 2.6667,-2.28333 4,-3.25 1.3333,-0.96667 2.6333,-1.9 3.9,-2.8 1.2667,-0.9 2.3833,-1.98333 3.35,-3.25 0.9667,-1.26667 1.75,-2.78333 2.35,-4.55 0.6,-1.76667 0.9,-4.01667 0.9,-6.75 0,-3.2 -0.55,-6.08333 -1.65,-8.65 -1.1,-2.56667 -2.6333,-4.76667 -4.6,-6.6 -1.9667,-1.83333 -4.2833,-3.26667 -6.95,-4.3 -2.6667,-1.03333 -5.6,-1.55 -8.8,-1.55 z m 3,74.3 v -13.8 h -13.7 V 800 Z"
         transform="rotate(-2,1069.3012,-10608.928)" />
      <path
         style="fill:#000000;stroke:#00bb31;stroke-width:6"
         id="path40"
         d="m 1930.194,617.15561 21,-21 h 32.5" />
      <path
         style="fill:#000000;stroke:#00bb31;stroke-width:6"
         id="path42"
         d="m 1915.0665,592.41374 15.1275,24.74187 v -15 l 21,-21 h 65 l -32.5,36 h -32.5" />
      <path
         style="fill:#00bb31;stroke:none;stroke-width:1"
         id="path44"
         d="m 1977.694,596.15561 c 0,-3.31371 2.6863,-6 6,-6 3.3137,0 6,2.68629 6,6 0,3.31371 -2.6863,6 -6,6 -3.3137,0 -6,-2.68629 -6,-6 z"
         transform="matrix(0.01,0,0,0.01,1963.857,590.19406)" />
      <path
         style="fill:#00bb31;stroke:none;stroke-width:1"
         id="path46"
         d="m 1945.194,617.15561 c 0,-3.31371 2.6863,-6 6,-6 3.3137,0 6,2.68629 6,6 0,3.31371 -2.6863,6 -6,6 -3.3137,0 -6,-2.68629 -6,-6 z"
         transform="matrix(0.01,0,0,0.01,1931.682,610.98406)" />
      <path
         style="fill:#00bb31;stroke:none;stroke-width:1"
         id="path48"
         d="m 1930.194,617.15561 -16.3051,-24.02188 0.3179,-0.12909 2.0373,-1.31089" />
      <path
         style="fill:#000000;stroke:#00bb31;stroke-width:6"
         id="path50"
         d="m 2120.759,526.86719 25,-25 h 33.5" />
      <path
         style="fill:#000000;stroke:#00bb31;stroke-width:6"
         id="path52"
         d="m 2098.7591,526.91046 21.9999,-0.0433 v -20 l 25,-25 h 67 l -33.5,45 h -33.5" />
      <path
         style="fill:#00bb31;stroke:none;stroke-width:1"
         id="path54"
         d="m 2173.259,501.86719 c 0,-3.31371 2.6863,-6 6,-6 3.3137,0 6,2.68629 6,6 0,3.31371 -2.6863,6 -6,6 -3.3137,0 -6,-2.68629 -6,-6 z"
         transform="matrix(0.01,0,0,0.01,2157.4664,496.84852)" />
      <path
         style="fill:#00bb31;stroke:none;stroke-width:1"
         id="path56"
         d="m 2139.759,526.86719 c 0,-3.31371 2.6863,-6 6,-6 3.3137,0 6,2.68629 6,6 0,3.31371 -2.6863,6 -6,6 -3.3137,0 -6,-2.68629 -6,-6 z"
         transform="matrix(0.01,0,0,0.01,2124.3014,521.59852)" />
      <path
         style="fill:#00bb31;stroke:none;stroke-width:1"
         id="path58"
         d="m 2098.7793,537.22185 -3.8898,1.755 -9.7623,11.07207 -8.4515,2.68866 -7.3388,9.30394 -10.9411,9.45635 -8.2518,0.1079 -0.7418,0.5499 3.0524,13.88101 -14.3584,8.41643 -0.088,15.65223 -6.7836,13.37846 -12.562,7.08487 -4.9872,12.04691 -5.8917,13.8307 2.3241,-15.63965 3.2034,-12.95138 10.7782,-7.98935 4.9998,-14.28294 0.088,-15.65223 14.3584,-8.41643 -1.957,-8.89916 -4.8669,2.79673 -7.7096,7.09885 -10.5042,6.66188 -5.288,4.33072 5.2802,-8.33072 10.5002,-8.66187 7.7057,-9.09884 6.4609,-5.715 15.2152,-2.199 10.9372,-11.45634 7.3349,-11.30394 8.4475,-4.68865 9.7584,-13.07206 3.8886,-2.37783 22.0202,10.26813" />
      <path
         style="fill:#000000;stroke:#00bb31;stroke-width:6"
         id="path60"
         d="m 134.90821,560.9129 -40,-40 h -34.5" />
      <path
         style="fill:#000000;stroke:#00bb31;stroke-width:6"
         id="path62"
         d="m 156.03018,567.06615 -21.12197,-6.15325 v -17 l -40,-40 h -69 l 34.5,57 h 34.5" />
      <path
         style="fill:#00bb31;stroke:none;stroke-width:1"
         id="path64"
         d="m 54.40821,520.9129 c 0,-3.31371 2.68629,-6 6,-6 3.31371,0 6,2.68629 6,6 0,3.31371 -2.68629,6 -6,6 -3.31371,0 -6,-2.68629 -6,-6 z"
         transform="matrix(0.01,0,0,0.01,59.80413,515.70377)" />
      <path
         style="fill:#00bb31;stroke:none;stroke-width:1"
         id="path66"
         d="m 88.90821,560.9129 c 0,-3.31371 2.68629,-6 6,-6 3.31371,0 6,2.68629 6,6 0,3.31371 -2.68629,6 -6,6 -3.31371,0 -6,-2.68629 -6,-6 z"
         transform="matrix(0.01,0,0,0.01,93.95913,555.30377)" />
      <path
         style="fill:#00bb31;stroke:none;stroke-width:1"
         id="path68"
         d="m 134.90821,560.9129 19.17302,12.8433 5.90544,-9.75652 13.5705,1.93031 9.24837,-10.37087 14.30189,-3.85459 10.85987,-6.70986 8.90618,-7.77945 -7.78741,3.93909 -10.30049,4.78968 -13.7425,1.93441 -8.68898,8.4507 -13.01111,-3.85049 -5.36388,7.8975" />
      <path
         style="fill:#000000;stroke:#00bb31;stroke-width:6"
         id="path70"
         d="m 239.97578,738.16651 38,-38 h 28" />
      <path
         style="fill:#000000;stroke:#00bb31;stroke-width:6"
         id="path72"
         d="m 206.78851,727.04873 33.18727,11.11778 v -15 l 38,-38 h 56 l -28,53 h -28" />
      <path
         style="fill:#00bb31;stroke:none;stroke-width:1"
         id="path74"
         d="m 299.97578,700.16651 c 0,-3.31371 2.68629,-6 6,-6 3.31371,0 6,2.68629 6,6 0,3.31371 -2.68629,6 -6,6 -3.31371,0 -6,-2.68629 -6,-6 z"
         transform="matrix(0.01,0,0,0.01,302.91603,693.16484)" />
      <path
         style="fill:#00bb31;stroke:none;stroke-width:1"
         id="path76"
         d="m 271.97578,738.16651 c 0,-3.31371 2.68629,-6 6,-6 3.31371,0 6,2.68629 6,6 0,3.31371 -2.68629,6 -6,6 -3.31371,0 -6,-2.68629 -6,-6 z"
         transform="matrix(0.01,0,0,0.01,275.19603,730.78484)" />
      <path
         style="fill:#00bb31;stroke:none;stroke-width:1"
         id="path78"
         d="m 239.97578,738.16651 -30.97011,-17.73616 -10.75295,7.08352 -7.98904,3.21753 -12.45987,-4.84545 -14.7015,5.20319 -7.98904,3.21753 -10.33246,7.8935 9.06186,-4.10067 7.35374,-1.32111 14.0662,-3.30677 11.82457,6.74187 7.35374,-1.32111 10.13043,-5.22526" />
      <path
         style="fill:#000000;stroke:#00bb31;stroke-width:6"
         id="path80"
         d="m 357.29927,641.27911 38,-38 h 28" />
      <path
         style="fill:#000000;stroke:#00bb31;stroke-width:6"
         id="path82"
         d="m 350.20186,661.04339 7.09741,-19.76428 v -19 l 38,-38 h 56 l -28,57 h -28" />
      <path
         style="fill:#00bb31;stroke:none;stroke-width:1"
         id="path84"
         d="m 417.29927,603.27911 c 0,-3.31371 2.68629,-6 6,-6 3.31371,0 6,2.68629 6,6 0,3.31371 -2.68629,6 -6,6 -3.31371,0 -6,-2.68629 -6,-6 z"
         transform="matrix(0.01,0,0,0.01,419.06627,597.24632)" />
      <path
         style="fill:#00bb31;stroke:none;stroke-width:1"
         id="path86"
         d="m 389.29927,641.27911 c 0,-3.31371 2.68629,-6 6,-6 3.31371,0 6,2.68629 6,6 0,3.31371 -2.68629,6 -6,6 -3.31371,0 -6,-2.68629 -6,-6 z"
         transform="matrix(0.01,0,0,0.01,391.34627,634.86632)" />
      <path
         style="fill:#00bb31;stroke:none;stroke-width:1"
         id="path88"
         d="m 357.29927,641.27911 2.4932,23.20829 -7.89189,-8.32335 -11.28932,1.43533" />
      <path
         style="fill:#000000;stroke:#00bb31;stroke-width:6"
         id="path90"
         d="m 384.26994,499.05142 32,-32 h 30" />
      <path
         style="fill:#000000;stroke:#00bb31;stroke-width:6"
         id="path92"
         d="m 349.74324,509.24489 34.5267,-10.19347 v -16 l 32,-32 h 60 l -30,48 h -30" />
      <path
         style="fill:#00bb31;stroke:none;stroke-width:1"
         id="path94"
         d="m 440.26994,467.05142 c 0,-3.31371 2.68629,-6 6,-6 3.31371,0 6,2.68629 6,6 0,3.31371 -2.68629,6 -6,6 -3.31371,0 -6,-2.68629 -6,-6 z"
         transform="matrix(0.01,0,0,0.01,441.80724,462.3809)" />
      <path
         style="fill:#00bb31;stroke:none;stroke-width:1"
         id="path96"
         d="m 410.26994,499.05142 c 0,-3.31371 2.68629,-6 6,-6 3.31371,0 6,2.68629 6,6 0,3.31371 -2.68629,6 -6,6 -3.31371,0 -6,-2.68629 -6,-6 z"
         transform="matrix(0.01,0,0,0.01,412.10724,494.0609)" />
      <path
         style="fill:#00bb31;stroke:none;stroke-width:1"
         id="path98"
         d="m 384.26994,499.05142 -36.54643,3.35239 -0.4302,2.09858 -7.45895,11.40225 -7.8745,8.60451 -7.27895,7.80119 -3.44235,14.37998 -6.68341,6.99787 -2.9792,11.738 4.1118,-7.9017 7.24971,-5.07972 4.00865,-12.46183 7.84526,-5.88304 8.4408,-6.68636 8.02525,-9.4841 0.50552,-1.84347" />
      <path
         style="fill:#000000;stroke:#00bb31;stroke-width:6"
         id="path100"
         d="m 406.93887,720.5089 -31,-31 h -33" />
      <path
         style="fill:#000000;stroke:#00bb31;stroke-width:6"
         id="path102"
         d="m 442.93883,720.56362 -35.99996,-0.0547 v -20 l -31,-31 h -66 l 33,51 h 33" />
      <path
         style="fill:#00bb31;stroke:none;stroke-width:1"
         id="path104"
         d="m 336.93887,689.5089 c 0,-3.31371 2.68629,-6 6,-6 3.31371,0 6,2.68629 6,6 0,3.31371 -2.68629,6 -6,6 -3.31371,0 -6,-2.68629 -6,-6 z"
         transform="matrix(0.01,0,0,0.01,339.50948,682.61381)" />
      <path
         style="fill:#00bb31;stroke:none;stroke-width:1"
         id="path106"
         d="m 369.93887,720.5089 c 0,-3.31371 2.68629,-6 6,-6 3.31371,0 6,2.68629 6,6 0,3.31371 -2.68629,6 -6,6 -3.31371,0 -6,-2.68629 -6,-6 z"
         transform="matrix(0.01,0,0,0.01,372.17948,713.30381)" />
      <path
         style="fill:#00bb31;stroke:none;stroke-width:1"
         id="path108"
         d="m 406.93887,720.5089 35.98942,6.9855 11.12963,-5.77275 10.3477,1.44059 10.60544,-6.61754 8.2648,-11.03585 5.66642,-7.39601 11.23288,-0.0275 -11.2268,-3.97246 -5.66338,5.39601 -8.26176,9.03585 -10.6024,4.61755 -10.34466,-3.44059 -11.1268,3.91118" />
      <path
         style="fill:#000000;stroke:#00bb31;stroke-width:6"
         id="path110"
         d="m 531.30608,517.44485 -40,-40 h -33" />
      <path
         style="fill:#000000;stroke:#00bb31;stroke-width:6"
         id="path112"
         d="m 531.35929,482.4449 -0.0532,34.99996 v -18 l -40,-40 h -66 l 33,58 h 33" />
      <path
         style="fill:#00bb31;stroke:none;stroke-width:1"
         id="path114"
         d="m 452.30608,477.44485 c 0,-3.31371 2.68629,-6 6,-6 3.31371,0 6,2.68629 6,6 0,3.31371 -2.68629,6 -6,6 -3.31371,0 -6,-2.68629 -6,-6 z"
         transform="matrix(0.01,0,0,0.01,453.72302,472.67041)" />
      <path
         style="fill:#00bb31;stroke:none;stroke-width:1"
         id="path116"
         d="m 485.30608,517.44485 c 0,-3.31371 2.68629,-6 6,-6 3.31371,0 6,2.68629 6,6 0,3.31371 -2.68629,6 -6,6 -3.31371,0 -6,-2.68629 -6,-6 z"
         transform="matrix(0.01,0,0,0.01,486.39302,512.27041)" />
      <path
         style="fill:#00bb31;stroke:none;stroke-width:1"
         id="path118"
         d="m 531.30608,517.44485 -3.9373,-35.00603 -0.75754,1.13159 -10.81065,6.30686 -14.9257,5.27422 -5.66813,9.05541 -11.83963,5.59096 11.83355,-1.59097 5.66509,-7.05541 14.92266,-3.27422 10.80761,-4.30687 8.75375,-11.11945" />
      <path
         style="fill:#000000;stroke:#00bb31;stroke-width:6"
         id="path120"
         d="m -202.14879,475.08261 -28,-28 h -23.5" />
      <path
         style="fill:#000000;stroke:#00bb31;stroke-width:6"
         id="path122"
         d="m -171.14887,475.01627 -30.99993,0.0663 v -15 l -28,-28 h -47 l 23.5,43 h 23.5" />
      <path
         style="fill:#00bb31;stroke:none;stroke-width:1"
         id="path124"
         d="m -259.64879,447.08261 c 0,-3.31371 2.68629,-6 6,-6 3.31371,0 6,2.68629 6,6 0,3.31371 -2.68629,6 -6,6 -3.31371,0 -6,-2.68629 -6,-6 z"
         transform="matrix(0.01,0,0,0.01,-251.11231,442.61178)" />
      <path
         style="fill:#00bb31;stroke:none;stroke-width:1"
         id="path126"
         d="m -236.14879,475.08261 c 0,-3.31371 2.68629,-6 6,-6 3.31371,0 6,2.68629 6,6 0,3.31371 -2.68629,6 -6,6 -3.31371,0 -6,-2.68629 -6,-6 z"
         transform="matrix(0.01,0,0,0.01,-227.84731,470.33178)" />
      <path
         style="fill:#00bb31;stroke:none;stroke-width:1"
         id="path128"
         d="m -202.14879,475.08261 31.01193,5.54285 10.25549,0.82316 7.50953,-3.75224 12.54835,-4.53343 11.0791,-11.45017 12.63934,-2.37252 -12.6479,-1.62747 -11.08338,9.45018 -12.55263,2.53344 -7.51381,1.75224 -10.25809,-2.04154" />
      <path
         style="fill:#000000;stroke:#00bb31;stroke-width:6"
         id="path130"
         d="m -47.69108,688.81887 23,-23 h 27" />
      <path
         style="fill:#000000;stroke:#00bb31;stroke-width:6"
         id="path132"
         d="m -86.69099,688.90233 38.99991,-0.0834 v -16 l 23,-23 h 54 l -27,39 h -27" />
      <path
         style="fill:#00bb31;stroke:none;stroke-width:1"
         id="path134"
         d="m -3.69108,665.81887 c 0,-3.31371 2.68629,-6 6,-6 3.31371,0 6,2.68629 6,6 0,3.31371 -2.68629,6 -6,6 -3.31371,0 -6,-2.68629 -6,-6 z"
         transform="matrix(0.01,0,0,0.01,2.28583,659.16069)" />
      <path
         style="fill:#00bb31;stroke:none;stroke-width:1"
         id="path136"
         d="m -30.69108,688.81887 c 0,-3.31371 2.68629,-6 6,-6 3.31371,0 6,2.68629 6,6 0,3.31371 -2.68629,6 -6,6 -3.31371,0 -6,-2.68629 -6,-6 z"
         transform="matrix(0.01,0,0,0.01,-24.44417,681.93069)" />
      <path
         style="fill:#00bb31;stroke:none;stroke-width:1"
         id="path138"
         d="m -47.69108,688.81887 -39.0125,-5.79768 -9.42168,5.7573 -13.98156,5.05661 -4.11449,9.48842 -11.756,4.84005 -10.06004,4.77659 10.0686,-0.7766 11.76028,-2.84006 4.11877,-7.48843 13.98584,-3.05661 9.42545,-3.99501" />
      <path
         style="fill:#000000;stroke:#00bb31;stroke-width:6"
         id="path140"
         d="m 123.66247,620.19531 38,-38 h 28.5" />
      <path
         style="fill:#000000;stroke:#00bb31;stroke-width:6"
         id="path142"
         d="m 96.66253,620.25309 26.99994,-0.0578 v -18 l 38,-38 h 57 l -28.5,56 h -28.5" />
      <path
         style="fill:#00bb31;stroke:none;stroke-width:1"
         id="path144"
         d="m 184.16247,582.19531 c 0,-3.31371 2.68629,-6 6,-6 3.31371,0 6,2.68629 6,6 0,3.31371 -2.68629,6 -6,6 -3.31371,0 -6,-2.68629 -6,-6 z"
         transform="matrix(0.01,0,0,0.01,188.26084,576.37336)" />
      <path
         style="fill:#00bb31;stroke:none;stroke-width:1"
         id="path146"
         d="m 155.66247,620.19531 c 0,-3.31371 2.68629,-6 6,-6 3.31371,0 6,2.68629 6,6 0,3.31371 -2.68629,6 -6,6 -3.31371,0 -6,-2.68629 -6,-6 z"
         transform="matrix(0.01,0,0,0.01,160.04584,613.99336)" />
      <path
         style="fill:#00bb31;stroke:none;stroke-width:1"
         id="path148"
         d="m 123.66247,620.19531 -27.01069,-4.96701 -0.25002,0.27677 -13.07113,4.75361 -13.90863,5.30004 -8.73538,15.05901 -13.87079,2.69466 13.87935,1.30533 8.73966,-13.05901 13.91291,-3.30004 13.07541,-2.75361 0.25012,-0.22718" />
      <path
         style="fill:#000000;stroke:#00bb31;stroke-width:6"
         id="path150"
         d="m 123.53784,561.95212 25,-25 h 23" />
      <path
         style="fill:#000000;stroke:#00bb31;stroke-width:6"
         id="path152"
         d="m 96.5379,562.0099 26.99994,-0.0578 v -17 l 25,-25 h 46 l -23,42 h -23" />
      <path
         style="fill:#00bb31;stroke:none;stroke-width:1"
         id="path154"
         d="m 165.53784,536.95212 c 0,-3.31371 2.68629,-6 6,-6 3.31371,0 6,2.68629 6,6 0,3.31371 -2.68629,6 -6,6 -3.31371,0 -6,-2.68629 -6,-6 z"
         transform="matrix(0.01,0,0,0.01,169.82246,531.5826)" />
      <path
         style="fill:#00bb31;stroke:none;stroke-width:1"
         id="path156"
         d="m 142.53784,561.95212 c 0,-3.31371 2.68629,-6 6,-6 3.31371,0 6,2.68629 6,6 0,3.31371 -2.68629,6 -6,6 -3.31371,0 -6,-2.68629 -6,-6 z"
         transform="matrix(0.01,0,0,0.01,147.05246,556.3326)" />
      <path
         style="fill:#00bb31;stroke:none;stroke-width:1"
         id="path158"
         d="m 96.56262,573.56377 -5.89091,-1.65267 -6.05721,10.28434 -16.80447,-4.69886 -11.30667,8.17647 -14.44827,0.81914 -6.58417,11.5967 -7.49592,-3.18577 -5.22362,2.72592 -0.06138,0.0441 -3.77735,5.48437 -2.28103,-1.13296 -1.58552,1.1388 0.85178,-1.50324 -7.4863,-3.71834 -9.86004,6.4714 -10.12061,2.3197 10.11205,-6.3197 9.85576,-8.4714 10.49679,3.21574 6.44563,-11.36466 4.14598,0.94214 4.45026,-11.10331 8.08775,-1.13946 14.44399,-2.81913 11.30239,-10.17646 16.80019,2.69887 6.05293,-12.28433 5.88854,0.54487 27.02466,11.4961" />
      <path
         style="fill:#000000;stroke:#00bb31;stroke-width:6"
         id="path160"
         d="m 1068.5176,568.95234 22,-22 h 27" />
      <path
         style="fill:#000000;stroke:#00bb31;stroke-width:6"
         id="path162"
         d="m 1068.2547,595.95106 0.2629,-26.99872 v -17 l 22,-22 h 54 l -27,39 h -27" />
      <path
         style="fill:#00bb31;stroke:none;stroke-width:1"
         id="path164"
         d="m 1111.5176,546.95234 c 0,-3.31371 2.6863,-6 6,-6 3.3137,0 6,2.68629 6,6 0,3.31371 -2.6863,6 -6,6 -3.3137,0 -6,-2.68629 -6,-6 z"
         transform="matrix(0.01,0,0,0.01,1106.3424,541.48282)" />
      <path
         style="fill:#00bb31;stroke:none;stroke-width:1"
         id="path166"
         d="m 1084.5176,568.95234 c 0,-3.31371 2.6863,-6 6,-6 3.3137,0 6,2.68629 6,6 0,3.31371 -2.6863,6 -6,6 -3.3137,0 -6,-2.68629 -6,-6 z"
         transform="matrix(0.01,0,0,0.01,1079.6124,563.26282)" />
      <path
         style="fill:#00bb31;stroke:none;stroke-width:1"
         id="path168"
         d="m 1068.5176,568.95234 4.9895,27.04987 -3.925,-2.47987 -6.5799,2.37757" />
      <path
         style="fill:#000000;stroke:#00bb31;stroke-width:6"
         id="path170"
         d="m 1130.1471,710.1104 21,-21 h 32" />
      <path
         style="fill:#000000;stroke:#00bb31;stroke-width:6"
         id="path172"
         d="m 1119.2654,693.32978 10.8817,16.78062 v -15 l 21,-21 h 64 l -32,36 h -32" />
      <path
         style="fill:#00bb31;stroke:none;stroke-width:1"
         id="path174"
         d="m 1177.1471,689.1104 c 0,-3.31371 2.6863,-6 6,-6 3.3137,0 6,2.68629 6,6 0,3.31371 -2.6863,6 -6,6 -3.3137,0 -6,-2.68629 -6,-6 z"
         transform="matrix(0.01,0,0,0.01,1171.3156,682.21929)" />
      <path
         style="fill:#00bb31;stroke:none;stroke-width:1"
         id="path176"
         d="m 1145.1471,710.1104 c 0,-3.31371 2.6863,-6 6,-6 3.3137,0 6,2.68629 6,6 0,3.31371 -2.6863,6 -6,6 -3.3137,0 -6,-2.68629 -6,-6 z"
         transform="matrix(0.01,0,0,0.01,1139.6356,703.00929)" />
      <path
         style="fill:#00bb31;stroke:none;stroke-width:1"
         id="path178"
         d="m 1130.1471,710.1104 -11.9737,-16.07247 2.1841,-1.4163" />
      <path
         style="fill:#000000;stroke:#00bb31;stroke-width:6"
         id="path180"
         d="m 1435.211,608.8988 -40,-40 h -24" />
      <path
         style="fill:#000000;stroke:#00bb31;stroke-width:6"
         id="path182"
         d="m 1448.5196,580.90093 -13.3086,27.99787 v -19 l -40,-40 h -48 l 24,59 h 24" />
      <path
         style="fill:#00bb31;stroke:none;stroke-width:1"
         id="path184"
         d="m 1365.211,568.8988 c 0,-3.31371 2.6863,-6 6,-6 3.3137,0 6,2.68629 6,6 0,3.31371 -2.6863,6 -6,6 -3.3137,0 -6,-2.68629 -6,-6 z"
         transform="matrix(0.01,0,0,0.01,1357.4989,563.20981)" />
      <path
         style="fill:#00bb31;stroke:none;stroke-width:1"
         id="path186"
         d="m 1389.211,608.8988 c 0,-3.31371 2.6863,-6 6,-6 3.3137,0 6,2.68629 6,6 0,3.31371 -2.6863,6 -6,6 -3.3137,0 -6,-2.68629 -6,-6 z"
         transform="matrix(0.01,0,0,0.01,1381.2589,602.80981)" />
      <path
         style="fill:#00bb31;stroke:none;stroke-width:1"
         id="path188"
         d="m 1435.211,608.8988 23.2541,-23.27037 7.4389,0.72041 12.6605,-5.83235 7.8592,-4.11513 8.9387,-6.22189 -7.9961,2.33453 -7.388,2.17145 -12.1892,3.88867 -8.1158,-2.77528 -12.8874,6.01294 -8.2117,-5.63836" />
      <path
         style="fill:#000000;stroke:#00bb31;stroke-width:6"
         id="path190"
         d="m 1577.8863,603.47677 21,-21 h 22.5" />
      <path
         style="fill:#000000;stroke:#00bb31;stroke-width:6"
         id="path192"
         d="m 1551.2497,599.06185 26.6366,4.41492 v -18 l 21,-21 h 45 l -22.5,39 h -22.5" />
      <path
         style="fill:#00bb31;stroke:none;stroke-width:1"
         id="path194"
         d="m 1615.3863,582.47677 c 0,-3.31371 2.6863,-6 6,-6 3.3137,0 6,2.68629 6,6 0,3.31371 -2.6863,6 -6,6 -3.3137,0 -6,-2.68629 -6,-6 z"
         transform="matrix(0.01,0,0,0.01,1605.1724,576.652)" />
      <path
         style="fill:#00bb31;stroke:none;stroke-width:1"
         id="path196"
         d="m 1592.8863,603.47677 c 0,-3.31371 2.6863,-6 6,-6 3.3137,0 6,2.68629 6,6 0,3.31371 -2.6863,6 -6,6 -3.3137,0 -6,-2.68629 -6,-6 z"
         transform="matrix(0.01,0,0,0.01,1582.8974,597.442)" />
      <path
         style="fill:#00bb31;stroke:none;stroke-width:1"
         id="path198"
         d="m 1577.8863,603.47677 -24.8326,-15.29898 -7.9172,-10.89049 -14.7092,-8.31819 -2.0408,-16.41204 -10.52,-4.47717 6.5987,5.26701 0.08,16.80696 12.7486,8.71311 6.5203,12.0609 3.512,13.03566 2.1194,5.98238" />
      <path
         style="fill:#000000;stroke:#00bb31;stroke-width:6"
         id="path200"
         d="m 1780.1388,449.68042 26,-26 h 31" />
      <path
         style="fill:#000000;stroke:#00bb31;stroke-width:6"
         id="path202"
         d="m 1759.5971,445.31737 20.5417,4.36305 v -19 l 26,-26 h 62 l -31,45 h -31" />
      <path
         style="fill:#00bb31;stroke:none;stroke-width:1"
         id="path204"
         d="m 1831.1388,423.68042 c 0,-3.31371 2.6863,-6 6,-6 3.3137,0 6,2.68629 6,6 0,3.31371 -2.6863,6 -6,6 -3.3137,0 -6,-2.68629 -6,-6 z"
         transform="matrix(0.01,0,0,0.01,1818.7674,419.44361)" />
      <path
         style="fill:#00bb31;stroke:none;stroke-width:1"
         id="path206"
         d="m 1800.1388,449.68042 c 0,-3.31371 2.6863,-6 6,-6 3.3137,0 6,2.68629 6,6 0,3.31371 -2.6863,6 -6,6 -3.3137,0 -6,-2.68629 -6,-6 z"
         transform="matrix(0.01,0,0,0.01,1788.0774,445.18361)" />
      <path
         style="fill:#00bb31;stroke:none;stroke-width:1"
         id="path208"
         d="m 1780.1388,449.68042 -19.8116,-7.80065 -0.556,0.0119 -9.7425,9.62477 -5.5056,11.21325 5.6465,-7.21574 8.6973,-6.75903" />
      <path
         style="fill:#000000;stroke:#00bb31;stroke-width:6"
         id="path210"
         d="m 1661.7854,506.23027 21,-21 h 32.5" />
      <path
         style="fill:#000000;stroke:#00bb31;stroke-width:6"
         id="path212"
         d="m 1661.7774,542.23027 0.01,-36 v -19 l 21,-21 h 65 l -32.5,40 h -32.5" />
      <path
         style="fill:#00bb31;stroke:none;stroke-width:1"
         id="path214"
         d="m 1709.2854,485.23027 c 0,-3.31371 2.6863,-6 6,-6 3.3137,0 6,2.68629 6,6 0,3.31371 -2.6863,6 -6,6 -3.3137,0 -6,-2.68629 -6,-6 z"
         transform="matrix(0.01,0,0,0.01,1698.1325,480.37797)" />
      <path
         style="fill:#00bb31;stroke:none;stroke-width:1"
         id="path216"
         d="m 1676.7854,506.23027 c 0,-3.31371 2.6863,-6 6,-6 3.3137,0 6,2.68629 6,6 0,3.31371 -2.6863,6 -6,6 -3.3137,0 -6,-2.68629 -6,-6 z"
         transform="matrix(0.01,0,0,0.01,1665.9575,501.16797)" />
      <path
         style="fill:#00bb31;stroke:none;stroke-width:1"
         id="path218"
         d="m 1661.7854,506.23027 -7.0814,35.99843 0.4999,0.76992 7.9857,6.41892 1.4726,11.17057 10.7044,7.19915 11.7681,11.18267 -1.4473,16.21783 11.1253,4.09057 -7.1253,-4.08968 3.4473,-16.21739 -9.7681,-11.18223 -8.7044,-7.1987 0.5274,-11.17013 -5.9857,-6.41848 -0.3532,-0.76989" />
      <path
         style="fill:#000000;stroke:#00bb31;stroke-width:6"
         id="path220"
         d="m 1665.0625,530.38372 28,-28 h 25.5" />
      <path
         style="fill:#000000;stroke:#00bb31;stroke-width:6"
         id="path222"
         d="m 1639.0625,530.37794 26,0.006 v -15 l 28,-28 h 51 l -25.5,43 h -25.5" />
      <path
         style="fill:#00bb31;stroke:none;stroke-width:1"
         id="path224"
         d="m 1712.5625,502.38372 c 0,-3.31371 2.6863,-6 6,-6 3.3137,0 6,2.68629 6,6 0,3.31371 -2.6863,6 -6,6 -3.3137,0 -6,-2.68629 -6,-6 z"
         transform="matrix(0.01,0,0,0.01,1701.3768,497.35989)" />
      <path
         style="fill:#00bb31;stroke:none;stroke-width:1"
         id="path226"
         d="m 1687.0625,530.38372 c 0,-3.31371 2.6863,-6 6,-6 3.3137,0 6,2.68629 6,6 0,3.31371 -2.6863,6 -6,6 -3.3137,0 -6,-2.68629 -6,-6 z"
         transform="matrix(0.01,0,0,0.01,1676.1318,525.07989)" />
      <path
         style="fill:#00bb31;stroke:none;stroke-width:1"
         id="path228"
         d="m 1665.0625,530.38372 -25.9988,-5.64539 -7.5723,2.18614 -10.7406,10.03562 -11.5499,10.62323 -11.4728,5.62382 -5.1539,11.92179 5.153,-7.92179 11.4724,-3.62382 11.5494,-8.62323 10.7402,-8.03562 7.572,-0.90692" />
      <path
         style="fill:#000000;stroke:#00bb31;stroke-width:6"
         id="path230"
         d="m 1667.3641,676.19598 22,-22 h 31.5" />
      <path
         style="fill:#000000;stroke:#00bb31;stroke-width:6"
         id="path232"
         d="m 1639.5591,684.43517 27.805,-8.23918 v -19 l 22,-22 h 63 l -31.5,41 h -31.5" />
      <path
         style="fill:#00bb31;stroke:none;stroke-width:1"
         id="path234"
         d="m 1714.8641,654.19598 c 0,-3.31371 2.6862,-6 6,-6 3.3137,0 6,2.68629 6,6 0,3.31371 -2.6863,6 -6,6 -3.3138,0 -6,-2.68629 -6,-6 z"
         transform="matrix(0.01,0,0,0.01,1703.6554,647.65402)" />
      <path
         style="fill:#00bb31;stroke:none;stroke-width:1"
         id="path236"
         d="m 1683.3641,676.19598 c 0,-3.31371 2.6862,-6 6,-6 3.3137,0 6,2.68629 6,6 0,3.31371 -2.6863,6 -6,6 -3.3138,0 -6,-2.68629 -6,-6 z"
         transform="matrix(0.01,0,0,0.01,1672.4704,669.43402)" />
      <path
         style="fill:#00bb31;stroke:none;stroke-width:1"
         id="path238"
         d="m 1667.3641,676.19598 -27.2745,10.02947 -1.061,-3.58057" />
      <path
         style="fill:#000000;stroke:#00bb31;stroke-width:6"
         id="path240"
         d="m 1811.0225,710.1539 35,-35 h 33.5" />
      <path
         style="fill:#000000;stroke:#00bb31;stroke-width:6"
         id="path242"
         d="m 1783.0225,710.14767 28,0.006 v -16 l 35,-35 h 67 l -33.5,51 h -33.5" />
      <path
         style="fill:#00bb31;stroke:none;stroke-width:1"
         id="path244"
         d="m 1873.5225,675.1539 c 0,-3.31371 2.6863,-6 6,-6 3.3137,0 6,2.68629 6,6 0,3.31371 -2.6863,6 -6,6 -3.3137,0 -6,-2.68629 -6,-6 z"
         transform="matrix(0.01,0,0,0.01,1860.7273,668.40236)" />
      <path
         style="fill:#00bb31;stroke:none;stroke-width:1"
         id="path246"
         d="m 1840.0225,710.1539 c 0,-3.31371 2.6863,-6 6,-6 3.3137,0 6,2.68629 6,6 0,3.31371 -2.6863,6 -6,6 -3.3137,0 -6,-2.68629 -6,-6 z"
         transform="matrix(0.01,0,0,0.01,1827.5623,703.05236)" />
      <path
         style="fill:#00bb31;stroke:none;stroke-width:1"
         id="path248"
         d="m 1811.0225,710.1539 -27.9987,-5.78203 -9.5402,3.07535 -6.1516,11.91603 -5.1964,7.78234 -11.3448,9.26439 -10.0713,4.75281 10.0704,-0.75281 11.3444,-7.26439 5.1959,-5.78234 6.1512,-9.91603 9.5398,-1.52375" />
      <path
         style="fill:#000000;stroke:#00bb31;stroke-width:6"
         id="path250"
         d="m 1952.459,423.15285 24,-24 h 34" />
      <path
         style="fill:#000000;stroke:#00bb31;stroke-width:6"
         id="path252"
         d="m 1929.9979,438.13619 22.4611,-14.98334 v -16 l 24,-24 h 68 l -34,40 h -34" />
      <path
         style="fill:#00bb31;stroke:none;stroke-width:1"
         id="path254"
         d="m 2004.459,399.15285 c 0,-3.31371 2.6863,-6 6,-6 3.3137,0 6,2.68629 6,6 0,3.31371 -2.6863,6 -6,6 -3.3137,0 -6,-2.68629 -6,-6 z"
         transform="matrix(0.01,0,0,0.01,1990.3544,395.16132)" />
      <path
         style="fill:#00bb31;stroke:none;stroke-width:1"
         id="path256"
         d="m 1970.459,423.15285 c 0,-3.31371 2.6863,-6 6,-6 3.3137,0 6,2.68629 6,6 0,3.31371 -2.6863,6 -6,6 -3.3137,0 -6,-2.68629 -6,-6 z"
         transform="matrix(0.01,0,0,0.01,1956.6944,418.92132)" />
      <path
         style="fill:#00bb31;stroke:none;stroke-width:1"
         id="path258"
         d="m 1939.9443,453.04652 -1.9196,4.44508 -3.0043,14.4406 0.3752,9.38298 -7.3281,7.0039 -10.1514,3.53563 0.1415,14.76307 -1.0365,7.64884 -13.0307,9.91606 -6.5054,5.18091 3.1096,10.61694 -10.5709,7.00774 3.0653,8.25725 -4.7103,-7.13076 -2.5851,13.48796 -5.9164,8.73803 -2.1816,12.61762 -11.7079,9.41589 -1.359,10.79464 -6.7391,10.56101 -9.5624,7.09274 4.0409,11.47403 -5.9625,-14.98221 8.6016,-8.84683 5.7782,-12.3151 0.3982,-12.54872 10.747,-11.16998 1.2208,-14.3717 4.9557,-10.49212 1.6321,-15.2832 11.2472,-9.84717 -4.0705,-12.37103 5.5447,-6.935 12.0698,-11.67015 0.076,-9.40293 -1.1023,-16.51716 9.1906,-5.28972 6.3672,-8.75798 -1.3359,-11.13706 2.0434,-16.19469 0.2824,-0.93805 32.4075,-0.073" />
      <path
         style="fill:#000000;stroke:#00bb31;stroke-width:6"
         id="path260"
         d="m 2050.1647,366.11481 -35,-35 h -26.5" />
      <path
         style="fill:#000000;stroke:#00bb31;stroke-width:6"
         id="path262"
         d="m 2050.2276,398.11475 -0.063,-31.99994 v -19 l -35,-35 h -53 l 26.5,54 h 26.5" />
      <path
         style="fill:#00bb31;stroke:none;stroke-width:1"
         id="path264"
         d="m 1982.6647,331.11481 c 0,-3.31371 2.6862,-6 6,-6 3.3137,0 6,2.68629 6,6 0,3.31371 -2.6863,6 -6,6 -3.3138,0 -6,-2.68629 -6,-6 z"
         transform="matrix(0.01,0,0,0.01,1968.778,327.80366)" />
      <path
         style="fill:#00bb31;stroke:none;stroke-width:1"
         id="path266"
         d="m 2009.1647,366.11481 c 0,-3.31371 2.6862,-6 6,-6 3.3137,0 6,2.68629 6,6 0,3.31371 -2.6863,6 -6,6 -3.3138,0 -6,-2.68629 -6,-6 z"
         transform="matrix(0.01,0,0,0.01,1995.013,362.45366)" />
      <path
         style="fill:#00bb31;stroke:none;stroke-width:1"
         id="path268"
         d="m 2050.1647,366.11481 -4.1543,32.00823 0.4464,2.82274 13.2194,4.5463 5.4389,9.17931 4.2407,9.58666 -0.2407,-9.59452 -3.4389,-9.18324 -11.2194,-4.55023 -0.012,-2.82359" />
      <path
         style="fill:#000000;stroke:#00bb31;stroke-width:6"
         id="path270"
         d="m -200.93044,577.1223 -21,-21 h -31.5" />
      <path
         style="fill:#000000;stroke:#00bb31;stroke-width:6"
         id="path272"
         d="m -170.93051,577.05811 -29.99993,0.0642 v -17 l -21,-21 h -63 l 31.5,38 h 31.5" />
      <path
         style="fill:#00bb31;stroke:none;stroke-width:1"
         id="path274"
         d="m -259.43044,556.1223 c 0,-3.31371 2.68629,-6 6,-6 3.31371,0 6,2.68629 6,6 0,3.31371 -2.68629,6 -6,6 -3.31371,0 -6,-2.68629 -6,-6 z"
         transform="matrix(0.01,0,0,0.01,-250.89614,550.56108)" />
      <path
         style="fill:#00bb31;stroke:none;stroke-width:1"
         id="path276"
         d="m -227.93044,577.1223 c 0,-3.31371 2.68629,-6 6,-6 3.31371,0 6,2.68629 6,6 0,3.31371 -2.68629,6 -6,6 -3.31371,0 -6,-2.68629 -6,-6 z"
         transform="matrix(0.01,0,0,0.01,-219.71114,571.35108)" />
      <path
         style="fill:#00bb31;stroke:none;stroke-width:1"
         id="path278"
         d="m -200.93044,577.1223 30.01521,7.07634 2.06641,0.0467 6.56979,-5.98093 7.75799,-10.8377 11.15803,-0.32866 12.73893,-4.26576 10.90969,-11.09613 10.63902,-7.63206 -10.64758,3.63207 -10.91397,9.09614 -12.74321,2.26577 -11.16231,-1.67133 -7.76227,8.8377 -6.57407,3.98094 -2.06701,-0.32784" />
    </g>
  </g>
</svg>
